<?xml version="1.0" encoding="utf-8"?>
<!-- Generator: Adobe Illustrator 21.0.0, SVG Export Plug-In . SVG Version: 6.00 Build 0)  -->
<svg version="1.1" id="Layer_1" xmlns="http://www.w3.org/2000/svg" xmlns:xlink="http://www.w3.org/1999/xlink" x="0px" y="0px"
	 viewBox="0 0 5400 9600" style="enable-background:new 0 0 5400 9600;" xml:space="preserve">
<style type="text/css">
	.st0{fill:url(#SVGID_1_);}
	.st1{fill:#F4F5F9;}
	.st2{opacity:0.5;fill:#F4F5F9;}
</style>
<linearGradient id="SVGID_1_" gradientUnits="userSpaceOnUse" x1="2700" y1="6.3209" x2="2700" y2="5445.5581">
	<stop  offset="4.950495e-03" style="stop-color:#17134B"/>
	<stop  offset="1" style="stop-color:#9C284F"/>
</linearGradient>
<rect y="0" class="st0" width="5400" height="5461.2"/>
<rect y="3850.9" class="st1" width="5400" height="5462.9"/>
<path class="st1" d="M-105.3,3938.9c0,0,211.1-278.7,1200-454.6s1733.3,425.7,2788.9,279s1977.8-308,1977.8-308l144.4,2492.8
	l-366.7,3783.8l-1333.3,322.6l-2300,58.7l-2188.9-14.7l-655.6-784.8L-105.3,3938.9z"/>
<rect y="3850.9" class="st1" width="5400" height="5462.9"/>
<path class="st2" d="M-294.2,3924.2c0,0,544.4-572,2100-557.3c1555.6,14.7,1043.9,502.1,2555.6,396s2300-1657.2,2300-1657.2
	l1233.3,3167.8L6872.4,7282.7L5686.8,9239.5l-2136.6,1181.8l-3166.7-484l-1300-440l177.8-2449.2l255.6-2698.5L-294.2,3924.2z"/>
<path class="st2" d="M-216.4,3616.3c0,0,966.7-431.8,1977.8-164.6s2349.3,348.5,3177.8,38.6s1600-38.6,1600-38.6l-466.7,5957.6
	l-522.2,1011.9l-6922.2,73.3l-277.8-1657.2l733.3-4253.1L-216.4,3616.3z"/>
</svg>
